<?xml version="1.0" encoding="UTF-8" standalone="no" ?>
<!DOCTYPE svg PUBLIC "-//W3C//DTD SVG 1.1//EN" "http://www.w3.org/Graphics/SVG/1.1/DTD/svg11.dtd">
<svg xmlns="http://www.w3.org/2000/svg" xmlns:xlink="http://www.w3.org/1999/xlink" version="1.1" width="1080" height="800" viewBox="0 0 1080 800" xml:space="preserve">
<desc>Created with Fabric.js 5.2.4</desc>
<defs>
</defs>
<g transform="matrix(0 0 0 0 0 0)" id="3200ed0b-048b-4af7-84c8-81e664ab595c"  >
</g>
<g transform="matrix(1 0 0 1 540 400)" id="ce620c7a-4292-4c53-bffd-94ced8583cae"  >
<rect style="stroke: none; stroke-width: 1; stroke-dasharray: none; stroke-linecap: butt; stroke-dashoffset: 0; stroke-linejoin: miter; stroke-miterlimit: 4; fill: rgb(255,255,255); fill-rule: nonzero; opacity: 1; visibility: hidden;" vector-effect="non-scaling-stroke"  x="-540" y="-400" rx="0" ry="0" width="1080" height="800" />
</g>
<g transform="matrix(0.36 0 0 -0.3 906.92 696.09)"  >
<path style="stroke: none; stroke-width: 1; stroke-dasharray: none; stroke-linecap: butt; stroke-dashoffset: 0; stroke-linejoin: miter; stroke-miterlimit: 4; fill: rgb(95,146,211); fill-rule: nonzero; opacity: 1;" vector-effect="non-scaling-stroke"  transform=" translate(-5168.8, -963.95)" d="M 5144.32 947.82 L 5139.58 966.3090000000001 L 5193.2699999999995 980.07 L 5198.009999999999 961.5780000000001 L 5144.32 947.82" stroke-linecap="round" />
</g>
<g transform="matrix(0.36 0 0 -0.3 897.35 704.22)"  >
<path style="stroke: none; stroke-width: 1; stroke-dasharray: none; stroke-linecap: butt; stroke-dashoffset: 0; stroke-linejoin: miter; stroke-miterlimit: 4; fill: rgb(95,146,211); fill-rule: nonzero; opacity: 1;" vector-effect="non-scaling-stroke"  transform=" translate(-5141.41, -937.23)" d="M 5116.92 921.102 L 5112.1900000000005 939.5899999999999 L 5165.88 953.3519999999999 L 5170.63 934.8589999999998 L 5116.92 921.1019999999999" stroke-linecap="round" />
</g>
<g transform="matrix(0.36 0 0 -0.3 887.79 712.36)"  >
<path style="stroke: none; stroke-width: 1; stroke-dasharray: none; stroke-linecap: butt; stroke-dashoffset: 0; stroke-linejoin: miter; stroke-miterlimit: 4; fill: rgb(95,146,211); fill-rule: nonzero; opacity: 1;" vector-effect="non-scaling-stroke"  transform=" translate(-5114.01, -910.5)" d="M 5089.53 894.379 L 5084.79 912.871 L 5138.5 926.629 L 5143.23 908.1410000000001 L 5089.53 894.3790000000001" stroke-linecap="round" />
</g>
<g transform="matrix(0.36 0 0 -0.3 878.23 720.5)"  >
<path style="stroke: none; stroke-width: 1; stroke-dasharray: none; stroke-linecap: butt; stroke-dashoffset: 0; stroke-linejoin: miter; stroke-miterlimit: 4; fill: rgb(95,146,211); fill-rule: nonzero; opacity: 1;" vector-effect="non-scaling-stroke"  transform=" translate(-5086.62, -883.79)" d="M 5062.15 867.672 L 5057.4 886.148 L 5111.099999999999 899.9100000000001 L 5115.839999999999 881.4300000000001 L 5062.15 867.672" stroke-linecap="round" />
</g>
<g transform="matrix(0.36 0 0 -0.3 354.04 289.43)"  >
<path style="stroke: none; stroke-width: 1; stroke-dasharray: none; stroke-linecap: butt; stroke-dashoffset: 0; stroke-linejoin: miter; stroke-miterlimit: 4; fill: rgb(200,221,235); fill-rule: nonzero; opacity: 1;" vector-effect="non-scaling-stroke"  transform=" translate(-3574.79, -2298.11)" d="M 3300.68 2062.95 C 3266.6499999999996 2042.9899999999998 3211.2599999999998 2042.6 3176.96 2062.08 C 3142.66 2081.5699999999997 3142.43 2113.54 3176.46 2133.52 C 3210.48 2153.48 3265.88 2153.87 3300.18 2134.37 C 3334.48 2114.89 3334.71 2082.91 3300.68 2062.95 z M 4009.85 2628.7 L 3505.9 2333.02 C 3378.13 2372.23 3215.34 2360.11 3107.91 2297.08 C 2977.22 2220.4 2978.08 2097.5499999999997 3109.8399999999997 2022.71 C 3139.4199999999996 2005.91 3173.0899999999997 1992.95 3208.9799999999996 1983.83 C 3234.3499999999995 1977.3799999999999 3260.8199999999997 1972.85 3287.7599999999998 1970.23 C 3392.58 1960.03 3504.4399999999996 1978.72 3585.08 2026.04 C 3682.74 2083.34 3706.91 2166.42 3657.92 2235.99 L 3727.46 2276.79 L 3725.4900000000002 2320.93 L 3798.67 2321.44 L 3796.83 2362.78 L 3870.0099999999998 2363.2900000000004 L 3868.16 2404.6400000000003 L 3941.35 2405.1500000000005 L 3939.5 2446.4900000000007 L 4012.69 2447.000000000001 L 4010.84 2488.350000000001 L 4088.9700000000003 2488.900000000001 L 4112.81 2502.880000000001 L 4139.120000000001 2611.430000000001 L 4009.850000000001 2628.700000000001" stroke-linecap="round" />
</g>
<g transform="matrix(0.36 0 0 -0.3 633.73 624.12)"  >
<path style="stroke: none; stroke-width: 1; stroke-dasharray: none; stroke-linecap: butt; stroke-dashoffset: 0; stroke-linejoin: miter; stroke-miterlimit: 4; fill: rgb(200,221,235); fill-rule: nonzero; opacity: 1;" vector-effect="non-scaling-stroke"  transform=" translate(-4371.21, -1199.38)" d="M 4285.55 758.332 L 3605.88 1149.1100000000001 C 3560.12 1175.5300000000002 3565.86 1221.68 3618.7000000000003 1252.19 L 4278.35 1633.04 C 4331.1900000000005 1663.54 4411.120000000001 1666.86 4456.88 1640.44 L 5136.54 1249.66 C 5182.3 1223.23 5176.56 1177.0900000000001 5123.72 1146.5800000000002 L 4464.07 765.73 C 4411.23 735.219 4331.299999999999 731.898 4285.549999999999 758.332" stroke-linecap="round" />
</g>
<g transform="matrix(0.36 0 0 -0.3 836.39 378.76)"  >
<path style="stroke: none; stroke-width: 1; stroke-dasharray: none; stroke-linecap: butt; stroke-dashoffset: 0; stroke-linejoin: miter; stroke-miterlimit: 4; fill: rgb(95,146,211); fill-rule: nonzero; opacity: 1;" vector-effect="non-scaling-stroke"  transform=" translate(-4955.03, -2004.88)" d="M 5082.35 1644.33 L 4964.85 1712.1699999999998 L 5398.09 1962.29 C 5418.55 1974.11 5418.55 1993.33 5398.09 2005.1499999999999 L 4955.5 2260.67 C 4935.04 2272.4900000000002 4901.75 2272.4900000000002 4881.28 2260.67 L 4448.049999999999 2010.5500000000002 L 4330.539999999999 2078.38 L 4763.779999999999 2328.52 C 4849.019999999999 2377.73 4987.739999999999 2377.73 5072.999999999999 2328.5099999999998 L 5515.589999999999 2072.9799999999996 C 5600.839999999999 2023.7599999999995 5600.839999999999 1943.6699999999996 5515.599999999999 1894.4499999999996 L 5082.349999999999 1644.3299999999995" stroke-linecap="round" />
</g>
<g transform="matrix(0.36 0 0 -0.3 623.97 494.58)"  >
<path style="stroke: none; stroke-width: 1; stroke-dasharray: none; stroke-linecap: butt; stroke-dashoffset: 0; stroke-linejoin: miter; stroke-miterlimit: 4; fill: rgb(217,239,251); fill-rule: nonzero; opacity: 1;" vector-effect="non-scaling-stroke"  transform=" translate(-4340.57, -1624.33)" d="M 5271.96 1614.45 C 5271.96 1677.28 5233.77 1750.24 5186.65 1777.45 L 4401.709999999999 2230.63 C 4380.609999999999 2242.81 4361.339999999999 2243.6800000000003 4346.449999999999 2235.36 L 4346.399999999999 2235.3900000000003 L 3409.1799999999985 1690.7700000000004 L 4315.509999999998 1007.8300000000004 L 5238.839999999998 1543.7400000000002 C 5241.689999999999 1545.0400000000002 5244.449999999998 1546.5400000000002 5246.989999999998 1548.4800000000002 L 5247.009999999998 1548.4800000000002 L 5246.999999999998 1548.4800000000002 C 5262.419999999998 1560.1600000000003 5271.959999999998 1583.0700000000002 5271.959999999998 1614.4500000000003" stroke-linecap="round" />
</g>
<g transform="matrix(0.36 0 0 -0.3 758.69 576.31)"  >
<path style="stroke: none; stroke-width: 1; stroke-dasharray: none; stroke-linecap: butt; stroke-dashoffset: 0; stroke-linejoin: miter; stroke-miterlimit: 4; fill: rgb(38,60,122); fill-rule: nonzero; opacity: 1;" vector-effect="non-scaling-stroke"  transform=" translate(-4734.2, -1356.53)" d="M 4315.51 1007.83 L 5238.84 1543.74 C 5241.6900000000005 1545.04 5244.45 1546.54 5246.99 1548.48 L 5247.01 1548.48 L 5247 1548.49 C 5262.42 1560.16 5271.96 1583.07 5271.96 1614.45 C 5271.96 1644.44 5263.19 1676.7 5248.96 1705.22 L 4196.4400000000005 1097.5500000000002 L 4315.51 1007.8300000000002" stroke-linecap="round" />
</g>
<g transform="matrix(0.36 0 0 -0.3 454.42 578.12)"  >
<path style="stroke: none; stroke-width: 1; stroke-dasharray: none; stroke-linecap: butt; stroke-dashoffset: 0; stroke-linejoin: miter; stroke-miterlimit: 4; fill: rgb(95,146,211); fill-rule: nonzero; opacity: 1;" vector-effect="non-scaling-stroke"  transform=" translate(-3864.01, -1350.59)" d="M 4256.47 1010.25 L 3471.53 1463.44 C 3424.4100000000003 1490.64 3386.23 1563.6100000000001 3386.23 1626.44 C 3386.23 1689.25 3424.41 1718.1200000000001 3471.53 1690.93 L 4256.47 1237.73 C 4303.59 1210.54 4341.79 1137.56 4341.79 1074.75 C 4341.79 1011.92 4303.59 983.051 4256.47 1010.25" stroke-linecap="round" />
</g>
<g transform="matrix(0.36 0 0 -0.3 531.08 620.18)"  >
<path style="stroke: none; stroke-width: 1; stroke-dasharray: none; stroke-linecap: butt; stroke-dashoffset: 0; stroke-linejoin: miter; stroke-miterlimit: 4; fill: rgb(255,255,255); fill-rule: nonzero; opacity: 1;" vector-effect="non-scaling-stroke"  transform=" translate(-4091.72, -1212.98)" d="M 4138.91 1163.09 L 4044.54 1217.53 C 4035.15 1222.95 4027.5299999999997 1237.5 4027.5299999999997 1250.02 C 4027.5299999999997 1262.54 4035.1499999999996 1268.29 4044.54 1262.87 L 4138.91 1208.4399999999998 C 4148.3 1203.0099999999998 4155.91 1188.4699999999998 4155.91 1175.9499999999998 C 4155.91 1163.4299999999998 4148.3 1157.6699999999998 4138.91 1163.09" stroke-linecap="round" />
</g>
<g transform="matrix(0.36 0 0 -0.3 430.99 104.9)"  >
<path style="stroke: none; stroke-width: 1; stroke-dasharray: none; stroke-linecap: butt; stroke-dashoffset: 0; stroke-linejoin: miter; stroke-miterlimit: 4; fill: rgb(64,103,177); fill-rule: nonzero; opacity: 1;" vector-effect="non-scaling-stroke"  transform=" translate(-3799.03, -2903.95)" d="M 3430.28 2758.96 L 3591.5600000000004 2667.34 L 3756.1200000000003 2763.9 L 3755.6800000000003 2805.9 L 3754.28 2805.08 L 3754.15 2808.04 L 3827.33 2808.55 L 3826.89 2849.9 L 3898.66 2850.4 L 3898.23 2891.76 L 3970 2892.26 L 3969.57 2933.61 L 4041.34 2934.11 L 4040.9100000000003 2975.4700000000003 L 4117.63 2976.01 L 4141.46 2989.9900000000002 L 4167.78 3098.55 L 4167.34 3140.55 L 4154.650000000001 3100.3 L 4038.5100000000007 3115.8100000000004 L 3430.2800000000007 2758.9600000000005" stroke-linecap="round" />
</g>
<g transform="matrix(0.36 0 0 -0.3 430.83 95.87)"  >
<path style="stroke: none; stroke-width: 1; stroke-dasharray: none; stroke-linecap: butt; stroke-dashoffset: 0; stroke-linejoin: miter; stroke-miterlimit: 4; fill: rgb(217,239,251); fill-rule: nonzero; opacity: 1;" vector-effect="non-scaling-stroke"  transform=" translate(-3798.59, -2933.58)" d="M 3591.12 2709.35 L 3755.68 2805.9 L 3753.71 2850.04 L 3826.89 2850.55 L 3825.0499999999997 2891.8900000000003 L 3898.2299999999996 2892.4000000000005 L 3896.3899999999994 2933.7500000000005 L 3969.5699999999993 2934.2600000000007 L 3967.709999999999 2975.6100000000006 L 4040.899999999999 2976.1100000000006 L 4039.0499999999993 3017.4600000000005 L 4117.199999999999 3018.0100000000007 L 4141.039999999999 3031.9900000000007 L 4167.339999999999 3140.5500000000006 L 4038.0699999999993 3157.810000000001 L 3429.8499999999995 2800.960000000001 L 3591.1199999999994 2709.350000000001" stroke-linecap="round" />
</g>
<g transform="matrix(0.36 0 0 -0.3 347.75 139.68)"  >
<path style="stroke: none; stroke-width: 1; stroke-dasharray: none; stroke-linecap: butt; stroke-dashoffset: 0; stroke-linejoin: miter; stroke-miterlimit: 4; fill: rgb(64,103,177); fill-rule: nonzero; opacity: 1;" vector-effect="non-scaling-stroke"  transform=" translate(-3565.27, -2790.02)" d="M 3700.7 2773.64 C 3684.14 2797.17 3659.2599999999998 2819.16 3625.96 2838.08 C 3602.5 2851.41 3576.39 2862.2 3548.71 2870.69 L 3429.85 2800.96 L 3591.12 2709.35 L 3700.7 2773.64" stroke-linecap="round" />
</g>
<g transform="matrix(0.36 0 0 -0.3 465.37 80.24)"  >
<path style="stroke: none; stroke-width: 1; stroke-dasharray: none; stroke-linecap: butt; stroke-dashoffset: 0; stroke-linejoin: miter; stroke-miterlimit: 4; fill: rgb(95,146,211); fill-rule: nonzero; opacity: 1;" vector-effect="non-scaling-stroke"  transform=" translate(-3899.55, -2984.99)" d="M 4162.93 3122.32 L 4167.34 3140.55 L 4145.650000000001 3143.44 L 3631.7600000000007 2841.92 L 3658.8200000000006 2826.55 L 4162.93 3122.32" stroke-linecap="round" />
</g>
<g transform="matrix(0.36 0 0 -0.3 166.35 180.45)"  >
<path style="stroke: none; stroke-width: 1; stroke-dasharray: none; stroke-linecap: butt; stroke-dashoffset: 0; stroke-linejoin: miter; stroke-miterlimit: 4; fill: rgb(212,208,206); fill-rule: nonzero; opacity: 1;" vector-effect="non-scaling-stroke"  transform=" translate(-3048.27, -2656.32)" d="M 3040.5 2626.46 L 3038.72 2686.17 L 3057.83 2645.85 z" stroke-linecap="round" />
</g>
<g transform="matrix(0.36 0 0 -0.3 283.21 188.08)"  >
<path style="stroke: none; stroke-width: 1; stroke-dasharray: none; stroke-linecap: butt; stroke-dashoffset: 0; stroke-linejoin: miter; stroke-miterlimit: 4; fill: rgb(64,103,177); fill-rule: nonzero; opacity: 1;" vector-effect="non-scaling-stroke"  transform=" translate(-3376.49, -2630.99)" d="M 3330.18 2603.82 C 3364.48 2584.34 3364.71 2552.3500000000004 3330.68 2532.3900000000003 C 3296.66 2512.4200000000005 3241.2599999999998 2512.0400000000004 3206.96 2531.5200000000004 C 3172.66 2551.0200000000004 3172.43 2582.9900000000002 3206.46 2602.9600000000005 C 3240.4900000000002 2622.9200000000005 3295.88 2623.3000000000006 3330.18 2603.8200000000006 z M 3139.8399999999997 2492.15 C 3271.6099999999997 2417.29 3484.3799999999997 2418.79 3615.08 2495.4700000000003 C 3680.61 2533.92 3713.0499999999997 2583.96 3712.52 2633.7500000000005 L 3712.53 2633.7200000000003 L 3710.7000000000003 2696.9700000000003 L 3699.9600000000005 2685.01 C 3684.7900000000004 2716.19 3655.9100000000003 2745.5600000000004 3613.1400000000003 2769.84 C 3481.3900000000003 2844.69 3268.6100000000006 2843.2000000000003 3137.92 2766.52 C 3007.2200000000003 2689.83 3008.08 2566.99 3139.84 2492.15" stroke-linecap="round" />
</g>
<g transform="matrix(0.36 0 0 -0.3 282.59 169.89)"  >
<path style="stroke: none; stroke-width: 1; stroke-dasharray: none; stroke-linecap: butt; stroke-dashoffset: 0; stroke-linejoin: miter; stroke-miterlimit: 4; fill: rgb(245,246,245); fill-rule: nonzero; opacity: 1;" vector-effect="non-scaling-stroke"  transform=" translate(-3374.71, -2690.67)" d="M 3328.4 2663.5 C 3362.71 2644 3362.9300000000003 2612.03 3328.9 2592.06 C 3294.87 2572.1 3239.48 2571.71 3205.1800000000003 2591.2 C 3170.88 2610.68 3170.65 2642.6699999999996 3204.6800000000003 2662.6299999999997 C 3238.7000000000003 2682.5899999999997 3294.09 2682.9799999999996 3328.4 2663.4999999999995 z M 3138.07 2551.82 C 3269.82 2476.9700000000003 3482.6000000000004 2478.46 3613.29 2555.15 C 3743.99 2631.83 3743.13 2754.67 3611.37 2829.52 C 3479.6099999999997 2904.37 3266.84 2902.88 3136.13 2826.19 C 3005.44 2749.51 3006.3 2626.67 3138.07 2551.82" stroke-linecap="round" />
</g>
<g transform="matrix(0.36 0 0 -0.3 208.13 205.72)"  >
<path style="stroke: none; stroke-width: 1; stroke-dasharray: none; stroke-linecap: butt; stroke-dashoffset: 0; stroke-linejoin: miter; stroke-miterlimit: 4; fill: rgb(95,146,211); fill-rule: nonzero; opacity: 1;" vector-effect="non-scaling-stroke"  transform=" translate(-3165.66, -2573.21)" d="M 3290.83 2519.13 C 3261.85 2514.6 3229.7799999999997 2518.56 3206.96 2531.52 C 3182.36 2545.5 3175.39 2565.88 3185.9 2583.67 L 3126.21 2631 C 3126.21 2631 3095.01 2666.2 3064.12 2701.1 C 3016.06 2630.85 3041.3599999999997 2548.1 3139.8399999999997 2492.15 C 3183.2899999999995 2467.46 3231.9799999999996 2453.4500000000003 3287.2 2445.32 L 3290.83 2519.13" stroke-linecap="round" />
</g>
<g transform="matrix(0.36 0 0 -0.3 282.59 169.89)"  >
<path style="stroke: none; stroke-width: 1; stroke-dasharray: none; stroke-linecap: butt; stroke-dashoffset: 0; stroke-linejoin: miter; stroke-miterlimit: 4; fill: rgb(217,239,251); fill-rule: nonzero; opacity: 1;" vector-effect="non-scaling-stroke"  transform=" translate(-3374.71, -2690.67)" d="M 3328.4 2663.5 C 3362.71 2644 3362.9300000000003 2612.03 3328.9 2592.06 C 3294.87 2572.1 3239.48 2571.71 3205.1800000000003 2591.2 C 3170.88 2610.68 3170.65 2642.6699999999996 3204.6800000000003 2662.6299999999997 C 3238.7000000000003 2682.5899999999997 3294.09 2682.9799999999996 3328.4 2663.4999999999995 z M 3138.07 2551.82 C 3167.65 2535.02 3201.31 2522.06 3237.21 2512.94 C 3262.57 2506.4900000000002 3289.04 2501.96 3315.9900000000002 2499.35 C 3420.8 2489.14 3532.67 2507.83 3613.2900000000004 2555.15 C 3743.9900000000002 2631.83 3743.1300000000006 2754.67 3611.3700000000003 2829.52 C 3479.6100000000006 2904.37 3266.84 2902.88 3136.13 2826.19 C 3005.44 2749.51 3006.3 2626.67 3138.07 2551.82" stroke-linecap="round" />
</g>
<g transform="matrix(0.36 0 0 -0.3 282.35 145.98)"  >
<path style="stroke: none; stroke-width: 1; stroke-dasharray: none; stroke-linecap: butt; stroke-dashoffset: 0; stroke-linejoin: miter; stroke-miterlimit: 4; fill: rgb(64,103,177); fill-rule: nonzero; opacity: 1;" vector-effect="non-scaling-stroke"  transform=" translate(-3374.72, -2769.3)" d="M 3075.81 2687.77 C 3082.23 2726.02 3110.58 2763.37 3161.0499999999997 2792.99 C 3277.33 2861.22 3466.64 2862.54 3583.87 2795.95 C 3642.13 2762.85 3671.56 2719.21 3672.23 2675.31 C 3680.59 2725.17 3651.61 2776.5099999999998 3585.26 2814.2 C 3468.0400000000004 2880.7999999999997 3278.7300000000005 2879.47 3162.4500000000003 2811.25 C 3103.9600000000005 2776.92 3075.1400000000003 2732.22 3075.8100000000004 2687.77" stroke-linecap="round" />
</g>
<g transform="matrix(0.36 0 0 -0.3 178.23 251.89)"  >
<path style="stroke: none; stroke-width: 1; stroke-dasharray: none; stroke-linecap: butt; stroke-dashoffset: 0; stroke-linejoin: miter; stroke-miterlimit: 4; fill: rgb(64,103,177); fill-rule: nonzero; opacity: 1;" vector-effect="non-scaling-stroke"  transform=" translate(-3078.12, -2421.41)" d="M 3159.59 2650.53 C 3135.8700000000003 2650.53 3109.29 2642.2900000000004 3081.56 2626.03 C 2982.92 2568.15 2903.3199999999997 2428.03 2904.14 2313.6600000000003 C 2904.5 2260.3700000000003 2922.23 2221.0800000000004 2954.06 2203.0200000000004 C 2985.88 2184.9600000000005 3028.7 2189.8200000000006 3074.66 2216.7800000000007 C 3173.31 2274.6500000000005 3252.8999999999996 2414.7800000000007 3252.1 2529.140000000001 C 3251.88 2560.520000000001 3245.47 2587.850000000001 3233.54 2608.170000000001 C 3225.49 2621.900000000001 3214.92 2632.540000000001 3202.16 2639.800000000001 C 3189.54 2646.970000000001 3175.19 2650.530000000001 3159.5899999999997 2650.530000000001 z M 2996.54 2144.7 C 2972.87 2144.7 2950.62 2150.3399999999997 2930.61 2161.71 C 2883.3900000000003 2188.51 2857.11 2242.35 2856.6400000000003 2313.34 C 2855.7100000000005 2442.81 2945.8300000000004 2601.46 3057.5200000000004 2667 C 3118.7100000000005 2702.91 3178.4100000000003 2707.93 3225.6300000000006 2681.1 C 3245.7400000000007 2669.67 3262.1900000000005 2653.22 3274.5100000000007 2632.22 C 3290.890000000001 2604.31 3299.330000000001 2569.74 3299.600000000001 2529.4599999999996 C 3300.520000000001 2399.99 3210.390000000001 2241.3299999999995 3098.7000000000007 2175.7999999999997 C 3063.4500000000007 2155.1299999999997 3028.6900000000005 2144.7 2996.540000000001 2144.7" stroke-linecap="round" />
</g>
<g transform="matrix(0.36 0 0 -0.3 243.1 210.63)"  >
<path style="stroke: none; stroke-width: 1; stroke-dasharray: none; stroke-linecap: butt; stroke-dashoffset: 0; stroke-linejoin: miter; stroke-miterlimit: 4; fill: rgb(217,239,251); fill-rule: nonzero; opacity: 1;" vector-effect="non-scaling-stroke"  transform=" translate(-3267.04, -2557.26)" d="M 3221.62 2545.44 L 3315.43 2522.4500000000003 L 3328.8999999999996 2592.0600000000004 C 3294.8699999999994 2572.1000000000004 3239.4799999999996 2571.7100000000005 3205.18 2591.2000000000003 L 3221.62 2545.44" stroke-linecap="round" />
</g>
<g transform="matrix(0.36 0 0 -0.3 282.25 218.87)"  >
<path style="stroke: none; stroke-width: 1; stroke-dasharray: none; stroke-linecap: butt; stroke-dashoffset: 0; stroke-linejoin: miter; stroke-miterlimit: 4; fill: rgb(217,239,251); fill-rule: nonzero; opacity: 1;" vector-effect="non-scaling-stroke"  transform=" translate(-3375.68, -2530.18)" d="M 3138.07 2551.82 C 3167.65 2535.02 3201.31 2522.06 3237.21 2512.94 C 3262.57 2506.4900000000002 3289.04 2501.96 3315.9900000000002 2499.35 C 3420.8 2489.14 3532.67 2507.83 3613.2900000000004 2555.15 L 3231.2700000000004 2563.7200000000003 L 3138.0700000000006 2551.82" stroke-linecap="round" />
</g>
<g transform="matrix(0.36 0 0 -0.3 239.52 232.78)"  >
<path style="stroke: none; stroke-width: 1; stroke-dasharray: none; stroke-linecap: butt; stroke-dashoffset: 0; stroke-linejoin: miter; stroke-miterlimit: 4; fill: rgb(64,103,177); fill-rule: nonzero; opacity: 1;" vector-effect="non-scaling-stroke"  transform=" translate(-3256.8, -2484.51)" d="M 3279.22 2503.58 C 3279.22 2503.58 3238.6099999999997 2510.19 3196.25 2524.97 L 3196.25 2466.3599999999997 C 3216.44 2459.3099999999995 3249.71 2449.1099999999997 3278.2 2445.3399999999997 C 3365.6699999999996 2433.7899999999995 3279.22 2503.5799999999995 3279.22 2503.5799999999995" stroke-linecap="round" />
</g>
<g transform="matrix(0.36 0 0 -0.3 213.03 227.89)"  >
<path style="stroke: none; stroke-width: 1; stroke-dasharray: none; stroke-linecap: butt; stroke-dashoffset: 0; stroke-linejoin: miter; stroke-miterlimit: 4; fill: rgb(95,146,211); fill-rule: nonzero; opacity: 1;" vector-effect="non-scaling-stroke"  transform=" translate(-3181.45, -2500.53)" d="M 3218.3 2517.9 C 3200.84 2523.05 3181.82 2529.62 3164.26 2537.84 C 3113.1600000000003 2561.77 3177.8 2473.13 3177.8 2473.13 C 3177.8 2473.13 3195.21 2466.2000000000003 3218.3 2459.12 L 3218.3 2517.9" stroke-linecap="round" />
</g>
<g transform="matrix(0.36 0 0 -0.3 517.77 552.56)"  >
<path style="stroke: none; stroke-width: 1; stroke-dasharray: none; stroke-linecap: butt; stroke-dashoffset: 0; stroke-linejoin: miter; stroke-miterlimit: 4; fill: rgb(95,146,211); fill-rule: nonzero; opacity: 1;" vector-effect="non-scaling-stroke"  transform=" translate(-4052.44, -1434.94)" d="M 4176.7 1488.1 L 4009.5499999999997 1380.3 L 3928.18 1393.51 L 4126.93 1489.59 L 4176.700000000001 1488.1" stroke-linecap="round" />
</g>
<g transform="matrix(0.36 0 0 -0.3 470.73 737.47)"  >
<path style="stroke: none; stroke-width: 1; stroke-dasharray: none; stroke-linecap: butt; stroke-dashoffset: 0; stroke-linejoin: miter; stroke-miterlimit: 4; fill: rgb(38,60,122); fill-rule: nonzero; opacity: 1;" vector-effect="non-scaling-stroke"  transform=" translate(-3918.32, -827.96)" d="M 3974.61 943.82 C 3974.61 943.82 3926.46 968.109 3896.8900000000003 931.941 C 3867.3300000000004 895.789 3825.0600000000004 810.4490000000001 3823.7500000000005 752.77 C 3822.4400000000005 695.1089999999999 3869.3900000000003 698.9879999999999 3897.2900000000004 712.648 C 3925.2100000000005 726.301 4006.7300000000005 844.551 4011.6700000000005 867.719 C 4016.6000000000004 890.898 4005.8500000000004 922.23 3998.0000000000005 928.359 C 3990.1600000000003 934.488 3974.6100000000006 943.82 3974.6100000000006 943.82" stroke-linecap="round" />
</g>
<g transform="matrix(0.36 0 0 -0.3 478.2 709.48)"  >
<path style="stroke: none; stroke-width: 1; stroke-dasharray: none; stroke-linecap: butt; stroke-dashoffset: 0; stroke-linejoin: miter; stroke-miterlimit: 4; fill: rgb(95,146,211); fill-rule: nonzero; opacity: 1;" vector-effect="non-scaling-stroke"  transform=" translate(-3940.66, -919.93)" d="M 3985.12 955.422 L 3987.3399999999997 905.539 C 3987.8199999999997 894.93 3982.49 884.832 3973.2499999999995 879.59 C 3964.8399999999997 874.82 3952.6299999999997 871.1600000000001 3936.1099999999997 873.82 C 3899.8399999999997 879.648 3896.5999999999995 890.0120000000001 3894.0099999999998 939.879 C 3891.43 989.75 3985.12 955.422 3985.12 955.422" stroke-linecap="round" />
</g>
<g transform="matrix(0.36 0 0 -0.3 409.19 708.25)"  >
<path style="stroke: none; stroke-width: 1; stroke-dasharray: none; stroke-linecap: butt; stroke-dashoffset: 0; stroke-linejoin: miter; stroke-miterlimit: 4; fill: rgb(38,60,122); fill-rule: nonzero; opacity: 1;" vector-effect="non-scaling-stroke"  transform=" translate(-3742.08, -923.87)" d="M 3798.37 1039.74 C 3798.37 1039.74 3750.22 1064.01 3720.65 1027.86 C 3691.09 991.7109999999999 3648.82 906.3589999999999 3647.51 848.6799999999998 C 3646.2000000000003 791.0199999999999 3693.15 794.9099999999999 3721.05 808.5509999999998 C 3748.96 822.2109999999998 3830.4900000000002 940.4609999999998 3835.42 963.6289999999998 C 3840.36 986.8089999999997 3829.61 1018.1299999999998 3821.76 1024.2699999999998 C 3813.92 1030.3999999999999 3798.3700000000003 1039.7399999999998 3798.3700000000003 1039.7399999999998" stroke-linecap="round" />
</g>
<g transform="matrix(0.36 0 0 -0.3 416.68 680.25)"  >
<path style="stroke: none; stroke-width: 1; stroke-dasharray: none; stroke-linecap: butt; stroke-dashoffset: 0; stroke-linejoin: miter; stroke-miterlimit: 4; fill: rgb(95,146,211); fill-rule: nonzero; opacity: 1;" vector-effect="non-scaling-stroke"  transform=" translate(-3764.42, -1015.84)" d="M 3808.88 1051.34 L 3811.1 1001.4599999999999 C 3811.58 990.852 3806.25 980.7379999999999 3797.0099999999998 975.4999999999999 C 3788.6 970.7299999999999 3776.39 967.0699999999999 3759.87 969.7299999999999 C 3723.6 975.5589999999999 3720.3599999999997 985.9219999999999 3717.77 1035.79 C 3715.19 1085.6599999999999 3808.88 1051.34 3808.88 1051.34" stroke-linecap="round" />
</g>
<g transform="matrix(0.36 0 0 -0.3 479.95 521.53)"  >
<path style="stroke: none; stroke-width: 1; stroke-dasharray: none; stroke-linecap: butt; stroke-dashoffset: 0; stroke-linejoin: miter; stroke-miterlimit: 4; fill: rgb(217,239,251); fill-rule: nonzero; opacity: 1;" vector-effect="non-scaling-stroke"  transform=" translate(-3940.67, -1536.07)" d="M 4238.49 1967.12 C 4224.24 2198.98 3987.39 1933.01 3987.39 1933.01 L 3825.2799999999997 1774.12 L 3679.31 1613.7599999999998 C 3650.7999999999997 1582.4499999999998 3637.54 1540.1599999999999 3643.06 1498.1699999999998 L 3702.1 1048.54 C 3705.02 1026.33 3724.02 1009.9499999999999 3746.42 1010.13 C 3752.7400000000002 1010.18 3759.9900000000002 1010.75 3768.29 1012.04 C 3820.97 1020.24 3817.08 1070.33 3817.08 1070.33 L 3806.29 1490.8799999999999 L 4112.84 1675.6699999999998 C 4112.84 1675.6699999999998 4252.7300000000005 1735.2599999999998 4238.49 1967.12" stroke-linecap="round" />
</g>
<g transform="matrix(0.36 0 0 -0.3 451.81 522.57)"  >
<path style="stroke: none; stroke-width: 1; stroke-dasharray: none; stroke-linecap: butt; stroke-dashoffset: 0; stroke-linejoin: miter; stroke-miterlimit: 4; fill: rgb(95,146,211); fill-rule: nonzero; opacity: 1;" vector-effect="non-scaling-stroke"  transform=" translate(-3864.86, -1533.36)" d="M 3923.43 1570.36 L 3879.7999999999997 1586.3799999999999 C 3878.7899999999995 1586.3799999999999 3805.6499999999996 1515.6299999999999 3806.2899999999995 1490.8799999999999 L 3839.0999999999995 1480.34 L 3921.5099999999993 1560.33 L 3923.4299999999994 1570.36" stroke-linecap="round" />
</g>
<g transform="matrix(0.36 0 0 -0.3 586.01 508.32)"  >
<path style="stroke: none; stroke-width: 1; stroke-dasharray: none; stroke-linecap: butt; stroke-dashoffset: 0; stroke-linejoin: miter; stroke-miterlimit: 4; fill: rgb(95,146,211); fill-rule: nonzero; opacity: 1;" vector-effect="non-scaling-stroke"  transform=" translate(-4247.53, -1580.06)" d="M 4176.7 1488.1 C 4176.7 1488.1 4358.88 1592.12 4380.679999999999 1635.73 C 4389.23 1652.81 4402.499999999999 1670.65 4349.339999999999 1696.47 L 4106.379999999999 1523.28 L 4116.909999999999 1463.6499999999999 L 4176.699999999999 1488.1" stroke-linecap="round" />
</g>
<g transform="matrix(0.36 0 0 -0.3 541.49 548.78)"  >
<path style="stroke: none; stroke-width: 1; stroke-dasharray: none; stroke-linecap: butt; stroke-dashoffset: 0; stroke-linejoin: miter; stroke-miterlimit: 4; fill: rgb(217,239,251); fill-rule: nonzero; opacity: 1;" vector-effect="non-scaling-stroke"  transform=" translate(-4116.89, -1446.58)" d="M 4414.74 1877.65 C 4399.54 2109.44 4163.63 1843.5400000000002 4163.63 1843.5400000000002 L 4001.52 1684.64 L 3855.55 1524.2900000000002 C 3827.04 1492.9700000000003 3813.78 1450.6800000000003 3819.3 1408.6900000000003 L 3878.3500000000004 959.0510000000003 C 3881.26 936.8520000000003 3900.26 920.4690000000003 3922.6600000000003 920.6410000000003 C 3928.9800000000005 920.6990000000003 3936.2300000000005 921.2700000000003 3944.53 922.5700000000003 C 3997.21 930.7700000000003 3993.32 980.8590000000003 3993.32 980.8590000000003 L 3982.53 1401.4000000000003 L 4289.08 1586.2000000000003 C 4289.08 1586.2000000000003 4428.62 1665.7200000000003 4414.74 1877.6500000000003" stroke-linecap="round" />
</g>
<g transform="matrix(0.36 0 0 -0.3 566.54 323.42)"  >
<path style="stroke: none; stroke-width: 1; stroke-dasharray: none; stroke-linecap: butt; stroke-dashoffset: 0; stroke-linejoin: miter; stroke-miterlimit: 4; fill: rgb(95,146,211); fill-rule: nonzero; opacity: 1;" vector-effect="non-scaling-stroke"  transform=" translate(-4189.39, -2186.36)" d="M 4274.61 2623.07 C 4454.179999999999 2548.61 4450.58 2442.4700000000003 4450.58 2442.4700000000003 C 4450.58 2442.4700000000003 4415.4 2053.3300000000004 4427.41 1793.4500000000003 C 4432.43 1684.8000000000002 3850.1899999999996 1676.5100000000002 3937.02 1966.3600000000004 C 4039.39 2308.1100000000006 4001.03 2584.78 4048.95 2626.5000000000005 C 4096.88 2668.2300000000005 4228.16 2642.3200000000006 4274.61 2623.0700000000006" stroke-linecap="round" />
</g>
<g transform="matrix(0.36 0 0 -0.3 583.98 212.19)"  >
<path style="stroke: none; stroke-width: 1; stroke-dasharray: none; stroke-linecap: butt; stroke-dashoffset: 0; stroke-linejoin: miter; stroke-miterlimit: 4; fill: rgb(250,182,169); fill-rule: nonzero; opacity: 1;" vector-effect="non-scaling-stroke"  transform=" translate(-4242.69, -2552.05)" d="M 4332.38 2528.95 C 4322.99 2492.49 4275.22 2473.27 4225.6900000000005 2486.04 C 4176.150000000001 2498.79 4143.610000000001 2538.69 4153.01 2575.15 C 4162.400000000001 2611.61 4210.17 2630.82 4259.7 2618.07 C 4309.23 2605.3 4341.78 2565.4 4332.38 2528.9500000000003" stroke-linecap="round" />
</g>
<g transform="matrix(0.36 0 0 -0.3 584.03 212.18)"  >
<path style="stroke: none; stroke-width: 1; stroke-dasharray: none; stroke-linecap: butt; stroke-dashoffset: 0; stroke-linejoin: miter; stroke-miterlimit: 4; fill: rgb(255,255,255); fill-rule: nonzero; opacity: 1;" vector-effect="non-scaling-stroke"  transform=" translate(-4242.69, -2552.05)" d="M 4228.97 2613.45 C 4195.63 2613.45 4167.740000000001 2597.93 4161.320000000001 2573.0099999999998 C 4157.4800000000005 2558.0899999999997 4161.9400000000005 2541.79 4173.910000000001 2527.1299999999997 C 4186.4800000000005 2511.7099999999996 4205.630000000001 2500.0699999999997 4227.830000000001 2494.3499999999995 C 4272.700000000001 2482.8299999999995 4315.870000000001 2499.2699999999995 4324.070000000001 2531.0799999999995 C 4327.910000000001 2546.0099999999993 4323.450000000001 2562.2999999999993 4311.4800000000005 2576.9599999999996 C 4298.910000000001 2592.3899999999994 4279.76 2604.0299999999997 4257.56 2609.7599999999998 C 4247.830000000001 2612.2599999999998 4238.1900000000005 2613.45 4228.97 2613.45 z M 4256.01 2473.54 C 4245.4800000000005 2473.54 4234.55 2474.89 4223.55 2477.72 C 4197.83 2484.35 4175.4800000000005 2498.04 4160.6 2516.2799999999997 C 4145.1 2535.2699999999995 4139.450000000001 2556.9399999999996 4144.700000000001 2577.29 C 4155.240000000001 2618.2799999999997 4207.81 2640.32 4261.840000000001 2626.38 C 4287.560000000001 2619.76 4309.910000000001 2606.05 4324.790000000001 2587.81 C 4340.290000000001 2568.81 4345.9400000000005 2547.15 4340.6900000000005 2526.81 C 4332.290000000001 2494.16 4297.2300000000005 2473.54 4256.01 2473.54" stroke-linecap="round" />
</g>
<g transform="matrix(0.36 0 0 -0.3 585.11 196.21)"  >
<path style="stroke: none; stroke-width: 1; stroke-dasharray: none; stroke-linecap: butt; stroke-dashoffset: 0; stroke-linejoin: miter; stroke-miterlimit: 4; fill: rgb(250,182,169); fill-rule: nonzero; opacity: 1;" vector-effect="non-scaling-stroke"  transform=" translate(-4246.83, -2604.52)" d="M 4202.62 2631.16 C 4202.62 2631.16 4204.16 2623.96 4201.05 2567.06 C 4200.08 2549.17 4262.71 2532.46 4278.91 2548.65 C 4295.099999999999 2564.84 4288.62 2581.6800000000003 4292.51 2642.56 C 4296.400000000001 2703.44 4202.62 2631.16 4202.62 2631.16" stroke-linecap="round" />
</g>
<g transform="matrix(0.36 0 0 -0.3 585.09 196.52)"  >
<path style="stroke: none; stroke-width: 1; stroke-dasharray: none; stroke-linecap: butt; stroke-dashoffset: 0; stroke-linejoin: miter; stroke-miterlimit: 4; fill: rgb(235,139,138); fill-rule: nonzero; opacity: 1;" vector-effect="non-scaling-stroke"  transform=" translate(-4246.77, -2603.51)" d="M 4292.51 2642.56 C 4292.51 2642.56 4277.08 2586.11 4201.04 2564.46 L 4202.2 2615.76 L 4292.51 2642.5600000000004" stroke-linecap="round" />
</g>
<g transform="matrix(0.36 0 0 -0.3 571.8 151.42)"  >
<path style="stroke: none; stroke-width: 1; stroke-dasharray: none; stroke-linecap: butt; stroke-dashoffset: 0; stroke-linejoin: miter; stroke-miterlimit: 4; fill: rgb(250,182,169); fill-rule: nonzero; opacity: 1;" vector-effect="non-scaling-stroke"  transform=" translate(-4206.86, -2751.38)" d="M 4340.67 2785.98 C 4359.79 2712.07 4315.36 2636.67 4241.46 2617.56 C 4167.55 2598.46 4092.15 2642.88 4073.04 2716.79 C 4053.93 2790.69 4098.35 2866.09 4172.26 2885.21 C 4246.16 2904.31 4321.570000000001 2859.88 4340.67 2785.98" stroke-linecap="round" />
</g>
<g transform="matrix(0.36 0 0 -0.3 552.66 152.95)"  >
<path style="stroke: none; stroke-width: 1; stroke-dasharray: none; stroke-linecap: butt; stroke-dashoffset: 0; stroke-linejoin: miter; stroke-miterlimit: 4; fill: rgb(235,139,138); fill-rule: nonzero; opacity: 1;" vector-effect="non-scaling-stroke"  transform=" translate(-4153.12, -2746.52)" d="M 4238.6 2746.31 C 4238.6 2746.31 4162.5 2713.71 4109.8 2713.34 C 4057.11 2712.96 4068.73 2757.09 4068.73 2757.09 L 4225.15 2779.7000000000003 L 4238.599999999999 2746.3100000000004" stroke-linecap="round" />
</g>
<g transform="matrix(0.36 0 0 -0.3 565.99 134.44)"  >
<path style="stroke: none; stroke-width: 1; stroke-dasharray: none; stroke-linecap: butt; stroke-dashoffset: 0; stroke-linejoin: miter; stroke-miterlimit: 4; fill: rgb(238,22,150); fill-rule: nonzero; opacity: 1;" vector-effect="non-scaling-stroke"  transform=" translate(-4189.39, -2807.12)" d="M 4094.1 2737.72 C 4094.1 2737.72 4160.39 2765.8599999999997 4218.54 2754.1299999999997 C 4232.22 2751.3699999999994 4244.89 2744.0499999999997 4253.69 2733.24 C 4256.57 2729.7099999999996 4260.21 2726.4799999999996 4264.33 2725.5499999999997 C 4274.64 2723.2099999999996 4291.5199999999995 2765.9999999999995 4311.57 2766.97 C 4331.61 2767.95 4344.99 2753.7599999999998 4328.549999999999 2727.4399999999996 C 4312.119999999999 2701.1299999999997 4317.679999999999 2671.6799999999994 4325.23 2667.4599999999996 C 4332.799999999999 2663.24 4413.009999999999 2724.6699999999996 4342.259999999999 2864.8299999999995 C 4271.499999999999 3004.9899999999993 4091.7799999999993 2929.4999999999995 4063.8199999999993 2901.0899999999997 C 4063.8199999999993 2901.0899999999997 4034.379999999999 2875.4399999999996 4010.4299999999994 2898.2699999999995 C 4010.4299999999994 2898.2699999999995 3983.5799999999995 2697.1899999999996 4094.0999999999995 2737.7199999999993" stroke-linecap="round" />
</g>
<g transform="matrix(0.36 0 0 -0.3 603.26 379.57)"  >
<path style="stroke: none; stroke-width: 1; stroke-dasharray: none; stroke-linecap: butt; stroke-dashoffset: 0; stroke-linejoin: miter; stroke-miterlimit: 4; fill: rgb(250,182,169); fill-rule: nonzero; opacity: 1;" vector-effect="non-scaling-stroke"  transform=" translate(-4296.22, -2002.46)" d="M 4349.84 2158.16 L 4349.84 2053.02 C 4349.84 2040.97 4344.78 2029.48 4335.87 2021.36 L 4119.86 1824.4199999999998 L 4144.4 1786.8899999999999 L 4429.67 1993.7799999999997 C 4442.9800000000005 2003.4399999999998 4451.56 2018.2899999999997 4453.28 2034.6499999999996 L 4472.57 2218.0299999999997 L 4349.84 2158.16" stroke-linecap="round" />
</g>
<g transform="matrix(0.36 0 0 -0.3 649.3 287.37)"  >
<path style="stroke: none; stroke-width: 1; stroke-dasharray: none; stroke-linecap: butt; stroke-dashoffset: 0; stroke-linejoin: miter; stroke-miterlimit: 4; fill: rgb(95,146,211); fill-rule: nonzero; opacity: 1;" vector-effect="non-scaling-stroke"  transform=" translate(-4429.7, -2305.09)" d="M 4435.37 2495.05 C 4435.37 2495.05 4500.91 2396.4900000000002 4525.32 2137.08 C 4525.32 2137.08 4413.38 2100.88 4349.84 2121.44 C 4286.32 2141.98 4435.37 2495.05 4435.37 2495.05" stroke-linecap="round" />
</g>
<g transform="matrix(0.36 0 0 -0.3 611.94 304.3)"  >
<path style="stroke: none; stroke-width: 1; stroke-dasharray: none; stroke-linecap: butt; stroke-dashoffset: 0; stroke-linejoin: miter; stroke-miterlimit: 4; fill: rgb(64,103,177); fill-rule: nonzero; opacity: 1;" vector-effect="non-scaling-stroke"  transform=" translate(-4324.32, -2249.64)" d="M 4337.88 2370.44 C 4337.88 2370.44 4312.2300000000005 2233.13 4310.77 2168.6 C 4310.370000000001 2150.87 4321.200000000001 2134.86 4337.88 2128.83 L 4337.88 2370.44" stroke-linecap="round" />
</g>
<g transform="matrix(0.36 0 0 -0.3 487.2 474.85)"  >
<path style="stroke: none; stroke-width: 1; stroke-dasharray: none; stroke-linecap: butt; stroke-dashoffset: 0; stroke-linejoin: miter; stroke-miterlimit: 4; fill: rgb(38,60,122); fill-rule: nonzero; opacity: 1;" vector-effect="non-scaling-stroke"  transform=" translate(-3960.98, -1689.77)" d="M 4281.84 1687.7 L 4234.09 1694 L 3925.9100000000003 1871.93 C 3916.03 1877.64 3898.7700000000004 1876.92 3887.36 1870.3300000000002 L 3668.98 1744.3000000000002 L 3640.12 1748.1200000000001 L 3640.12 1719.3700000000001 L 3640.15 1719.3700000000001 C 3639.9500000000003 1715.5900000000001 3642.11 1711.94 3646.77 1709.2500000000002 L 3996.04 1507.6100000000001 C 4005.92 1501.89 4023.17 1502.6200000000001 4034.58 1509.2 L 4272.41 1646.46 C 4278.83 1650.17 4282.0199999999995 1654.94 4281.84 1659.42 L 4281.84 1687.7" stroke-linecap="round" />
</g>
<g transform="matrix(0.36 0 0 -0.3 445.96 484.47)"  >
<path style="stroke: none; stroke-width: 1; stroke-dasharray: none; stroke-linecap: butt; stroke-dashoffset: 0; stroke-linejoin: miter; stroke-miterlimit: 4; fill: rgb(64,103,177); fill-rule: nonzero; opacity: 1;" vector-effect="non-scaling-stroke"  transform=" translate(-3845.2, -1658.27)" d="M 4050.27 1800.13 L 4028.38 1812.7700000000002 L 3787.6600000000003 1812.7700000000002 L 3668.9800000000005 1744.3000000000002 L 3640.1200000000003 1748.1200000000001 L 3640.1200000000003 1719.3700000000001 L 3640.1500000000005 1719.3700000000001 C 3639.9500000000007 1715.5900000000001 3642.1100000000006 1711.94 3646.7700000000004 1709.2500000000002 L 3996.0400000000004 1507.6100000000001 C 4001.26 1504.5900000000001 4008.5400000000004 1503.39 4015.9300000000003 1503.88 L 4050.2700000000004 1800.13" stroke-linecap="round" />
</g>
<g transform="matrix(0.36 0 0 -0.3 375.22 463.62)"  >
<path style="stroke: none; stroke-width: 1; stroke-dasharray: none; stroke-linecap: butt; stroke-dashoffset: 0; stroke-linejoin: miter; stroke-miterlimit: 4; fill: rgb(95,146,211); fill-rule: nonzero; opacity: 1;" vector-effect="non-scaling-stroke"  transform=" translate(-3646.52, -1726.91)" d="M 3652.93 1746.43 L 3640.12 1748.1200000000001 L 3640.12 1719.3700000000001 L 3640.15 1719.3700000000001 C 3639.9500000000003 1715.5900000000001 3642.11 1711.94 3646.77 1709.2500000000002 L 3652.93 1705.7000000000003 L 3652.93 1746.4300000000003" stroke-linecap="round" />
</g>
<g transform="matrix(0.36 0 0 -0.3 504.26 523.51)"  >
<path style="stroke: none; stroke-width: 1; stroke-dasharray: none; stroke-linecap: butt; stroke-dashoffset: 0; stroke-linejoin: miter; stroke-miterlimit: 4; fill: rgb(46,75,141); fill-rule: nonzero; opacity: 1;" vector-effect="non-scaling-stroke"  transform=" translate(-4015.93, -1530.33)" d="M 3999.55 1505.97 C 4008.92 1502.42 4022.3 1503.19 4032.3 1508.01 L 4032.3 1556.89 L 3999.55 1556.89 L 3999.55 1505.97" stroke-linecap="round" />
</g>
<g transform="matrix(0.36 0 0 -0.3 487.19 466.34)"  >
<path style="stroke: none; stroke-width: 1; stroke-dasharray: none; stroke-linecap: butt; stroke-dashoffset: 0; stroke-linejoin: miter; stroke-miterlimit: 4; fill: rgb(255,255,255); fill-rule: nonzero; opacity: 1;" vector-effect="non-scaling-stroke"  transform=" translate(-3960.98, -1717.7)" d="M 3996.04 1536.33 L 3646.77 1737.9699999999998 C 3636.89 1743.6699999999998 3638.13 1753.6399999999999 3649.54 1760.2199999999998 L 3887.36 1897.4899999999998 C 3898.77 1904.0699999999997 3916.03 1904.7899999999997 3925.9100000000003 1899.0799999999997 L 4275.18 1697.4399999999996 C 4285.06 1691.7399999999996 4283.820000000001 1681.7699999999995 4272.41 1675.1899999999996 L 4034.58 1537.9199999999996 C 4023.17 1531.3399999999997 4005.92 1530.6199999999997 3996.04 1536.3299999999997" stroke-linecap="round" />
</g>
<g transform="matrix(0.36 0 0 -0.3 474.31 472.84)"  >
<path style="stroke: none; stroke-width: 1; stroke-dasharray: none; stroke-linecap: butt; stroke-dashoffset: 0; stroke-linejoin: miter; stroke-miterlimit: 4; fill: rgb(217,239,251); fill-rule: nonzero; opacity: 1;" vector-effect="non-scaling-stroke"  transform=" translate(-3925.82, -1696.47)" d="M 3990.13 1566.88 L 3699.7200000000003 1734.5600000000002 C 3691.5000000000005 1739.3000000000002 3692.53 1747.5900000000001 3702.0200000000004 1753.0700000000002 L 3829.4600000000005 1824.7300000000002 C 3838.9500000000003 1830.2100000000003 3853.3000000000006 1830.8000000000002 3861.5100000000007 1826.0500000000002 L 4151.920000000001 1658.39 C 4160.140000000001 1653.64 4159.110000000001 1645.3600000000001 4149.620000000001 1639.88 L 4022.1800000000007 1568.21 C 4012.7000000000007 1562.74 3998.3400000000006 1562.15 3990.1300000000006 1566.88" stroke-linecap="round" />
</g>
<g transform="matrix(0.36 0 0 -0.3 475.92 427.7)"  >
<path style="stroke: none; stroke-width: 1; stroke-dasharray: none; stroke-linecap: butt; stroke-dashoffset: 0; stroke-linejoin: miter; stroke-miterlimit: 4; fill: rgb(250,182,169); fill-rule: nonzero; opacity: 1;" vector-effect="non-scaling-stroke"  transform=" translate(-3934.3, -1844.74)" d="M 3900.87 1904.11 L 3897.2599999999998 1880.01 C 3894.1699999999996 1859.47 3894.7099999999996 1838.56 3898.83 1818.21 L 3903.13 1796.98 C 3905.56 1785 3915.03 1775.71 3927.05 1773.53 C 3936.4500000000003 1771.82 3945.3100000000004 1778.41 3946.38 1787.8999999999999 L 3952.1400000000003 1839.4099999999999 C 3952.1400000000003 1839.4099999999999 3965.32 1822.1499999999999 3971.6900000000005 1822.1499999999999 C 3978.0500000000006 1822.1499999999999 3964.5600000000004 1873.7399999999998 3950.1800000000003 1902.9399999999998 C 3935.78 1932.1399999999999 3900.8700000000003 1904.11 3900.8700000000003 1904.11" stroke-linecap="round" />
</g>
<g transform="matrix(0.36 0 0 -0.3 481.17 340.29)"  >
<path style="stroke: none; stroke-width: 1; stroke-dasharray: none; stroke-linecap: butt; stroke-dashoffset: 0; stroke-linejoin: miter; stroke-miterlimit: 4; fill: rgb(250,182,169); fill-rule: nonzero; opacity: 1;" vector-effect="non-scaling-stroke"  transform=" translate(-3948.71, -2131.39)" d="M 4019.26 2287.12 L 3981.7900000000004 2212.95 C 3972.9200000000005 2195.41 3967.7100000000005 2176.25 3966.4500000000003 2156.64 L 3950.1800000000003 1902.9399999999998 L 3900.8700000000003 1904.11 L 3878.4900000000002 2189.02 C 3877.8 2197.82 3878.2200000000003 2206.67 3879.7700000000004 2215.36 L 3905.3200000000006 2359.84 L 4019.2600000000007 2287.1200000000003" stroke-linecap="round" />
</g>
<g transform="matrix(0.36 0 0 -0.3 433.44 445.66)"  >
<path style="stroke: none; stroke-width: 1; stroke-dasharray: none; stroke-linecap: butt; stroke-dashoffset: 0; stroke-linejoin: miter; stroke-miterlimit: 4; fill: rgb(38,60,122); fill-rule: nonzero; opacity: 1;" vector-effect="non-scaling-stroke"  transform=" translate(-3809.47, -1785.48)" d="M 3984.21 1516.95 L 3954.92 1555.19 L 3646.95 1733.5 C 3637.08 1739.21 3629.0899999999997 1754.52 3629.1 1767.7 L 3629.38 2019.83 L 3611.6600000000003 2042.9499999999998 L 3628.3 2052.5899999999997 L 3628.32 2052.5699999999997 C 3631.5 2054.62 3635.7400000000002 2054.5599999999995 3640.4 2051.87 L 3989.41 1849.79 C 3999.29 1844.08 4007.2799999999997 1828.77 4007.27 1815.6 L 4006.97 1541 C 4006.9599999999996 1533.58 4004.4199999999996 1528.44 4000.4399999999996 1526.36 L 3984.2099999999996 1516.9499999999998" stroke-linecap="round" />
</g>
<g transform="matrix(0.36 0 0 -0.3 432.6 423.67)"  >
<path style="stroke: none; stroke-width: 1; stroke-dasharray: none; stroke-linecap: butt; stroke-dashoffset: 0; stroke-linejoin: miter; stroke-miterlimit: 4; fill: rgb(64,103,177); fill-rule: nonzero; opacity: 1;" vector-effect="non-scaling-stroke"  transform=" translate(-3807.11, -1857.77)" d="M 3771.23 1661.53 L 3749.36 1674.21 L 3629.25 1882.8200000000002 L 3629.38 2019.8300000000002 L 3611.6600000000003 2042.95 L 3628.3 2052.59 L 3628.32 2052.57 C 3631.5 2054.6200000000003 3635.7400000000002 2054.56 3640.4 2051.8700000000003 L 3989.41 1849.7900000000004 C 3994.6299999999997 1846.7800000000004 3999.31 1841.0600000000004 4002.5699999999997 1834.4100000000003 L 3771.2299999999996 1661.5300000000002" stroke-linecap="round" />
</g>
<g transform="matrix(0.36 0 0 -0.3 369.21 367.21)"  >
<path style="stroke: none; stroke-width: 1; stroke-dasharray: none; stroke-linecap: butt; stroke-dashoffset: 0; stroke-linejoin: miter; stroke-miterlimit: 4; fill: rgb(95,146,211); fill-rule: nonzero; opacity: 1;" vector-effect="non-scaling-stroke"  transform=" translate(-3629.1, -2043.35)" d="M 3619.52 2032.7 L 3611.66 2042.95 L 3628.2999999999997 2052.59 L 3628.3199999999997 2052.57 C 3631.4999999999995 2054.6200000000003 3635.74 2054.56 3640.3999999999996 2051.8700000000003 L 3646.5399999999995 2048.3100000000004 L 3619.5199999999995 2032.7000000000005" stroke-linecap="round" />
</g>
<g transform="matrix(0.36 0 0 -0.3 492.47 434.33)"  >
<path style="stroke: none; stroke-width: 1; stroke-dasharray: none; stroke-linecap: butt; stroke-dashoffset: 0; stroke-linejoin: miter; stroke-miterlimit: 4; fill: rgb(46,75,141); fill-rule: nonzero; opacity: 1;" vector-effect="non-scaling-stroke"  transform=" translate(-3981.94, -1823.01)" d="M 3992.59 1847.56 C 4000.34 1841.22 4006.3500000000004 1829.23 4007.17 1818.1599999999999 L 3973.06 1798.4699999999998 L 3956.72 1826.86 L 3992.5899999999997 1847.56" stroke-linecap="round" />
</g>
<g transform="matrix(0.36 0 0 -0.3 429.43 447.31)"  >
<path style="stroke: none; stroke-width: 1; stroke-dasharray: none; stroke-linecap: butt; stroke-dashoffset: 0; stroke-linejoin: miter; stroke-miterlimit: 4; fill: rgb(95,146,211); fill-rule: nonzero; opacity: 1;" vector-effect="non-scaling-stroke"  transform=" translate(-3798.11, -1780.06)" d="M 3972.79 1840.17 L 3623.7799999999997 2042.25 C 3613.8999999999996 2047.96 3605.89 2041.91 3605.87 2028.74 L 3605.58 1754.15 C 3605.56 1740.98 3613.54 1725.66 3623.42 1719.94 L 3972.44 1517.8700000000001 C 3982.31 1512.16 3990.33 1518.2 3990.35 1531.38 L 3990.64 1805.97 C 3990.65 1819.14 3982.67 1834.45 3972.79 1840.17" stroke-linecap="round" />
</g>
<g transform="matrix(0.36 0 0 -0.3 529.32 450.37)"  >
<path style="stroke: none; stroke-width: 1; stroke-dasharray: none; stroke-linecap: butt; stroke-dashoffset: 0; stroke-linejoin: miter; stroke-miterlimit: 4; fill: rgb(250,182,169); fill-rule: nonzero; opacity: 1;" vector-effect="non-scaling-stroke"  transform=" translate(-4086.86, -1770.36)" d="M 4144.4 1786.89 L 4138.8099999999995 1775.3000000000002 C 4132.37 1761.9600000000003 4122.249999999999 1750.7400000000002 4109.639999999999 1742.9700000000003 L 4074.9699999999993 1721.6000000000004 C 4064.189999999999 1714.9500000000003 4050.5299999999993 1714.4000000000003 4039.5799999999995 1720.7800000000004 L 4038.3999999999996 1721.4900000000005 C 4027.3799999999997 1728.4000000000005 4026.3899999999994 1744.2200000000005 4035.45 1753.5400000000004 L 4071.68 1790.7800000000004 C 4071.68 1790.7800000000004 4051.33 1775.1900000000005 4045.6299999999997 1781.4600000000005 C 4041.45 1786.0700000000004 4065.3599999999997 1808.5300000000004 4083.72 1809.2700000000004 C 4102.09 1810.0000000000005 4119.86 1824.4200000000005 4119.86 1824.4200000000005 L 4144.4 1786.8900000000006" stroke-linecap="round" />
</g>
<g transform="matrix(0.36 0 0 -0.3 490.17 249.11)"  >
<path style="stroke: none; stroke-width: 1; stroke-dasharray: none; stroke-linecap: butt; stroke-dashoffset: 0; stroke-linejoin: miter; stroke-miterlimit: 4; fill: rgb(95,146,211); fill-rule: nonzero; opacity: 1;" vector-effect="non-scaling-stroke"  transform=" translate(-3973.71, -2430.68)" d="M 4052.54 2627.05 C 4052.54 2627.05 3919.74 2482.54 3866.16 2349.9700000000003 C 3866.16 2349.9700000000003 3911.5699999999997 2268.15 4022.74 2236.0400000000004 C 4133.91 2203.9400000000005 4052.54 2627.05 4052.54 2627.05" stroke-linecap="round" />
</g>
<g transform="matrix(0.36 0 0 -0.3 496.64 274.16)"  >
<path style="stroke: none; stroke-width: 1; stroke-dasharray: none; stroke-linecap: butt; stroke-dashoffset: 0; stroke-linejoin: miter; stroke-miterlimit: 4; fill: rgb(64,103,177); fill-rule: nonzero; opacity: 1;" vector-effect="non-scaling-stroke"  transform=" translate(-3993.9, -2348.59)" d="M 3997.73 2244.62 L 4019.26 2452.56 L 3968.5400000000004 2257.73 C 3977.5800000000004 2253.03 3987.3600000000006 2248.64 3997.7300000000005 2244.62" stroke-linecap="round" />
</g>
<g transform="matrix(0.36 0 0 -0.3 551.8 182.83)"  >
<path style="stroke: none; stroke-width: 1; stroke-dasharray: none; stroke-linecap: butt; stroke-dashoffset: 0; stroke-linejoin: miter; stroke-miterlimit: 4; fill: rgb(255,255,255); fill-rule: nonzero; opacity: 1;" vector-effect="non-scaling-stroke"  transform=" translate(-4151.65, -2648.52)" d="M 4152.01 2656.21 L 4116.33 2666.02 C 4116.33 2666.02 4133.37 2639.21 4158.24 2632.38 C 4183.12 2625.55 4186.98 2646.6 4186.98 2646.6 L 4152.009999999999 2656.21" stroke-linecap="round" />
</g>
<g transform="matrix(0.36 0 0 -0.3 315.87 52.65)"  >
<path style="stroke: none; stroke-width: 1; stroke-dasharray: none; stroke-linecap: butt; stroke-dashoffset: 0; stroke-linejoin: miter; stroke-miterlimit: 4; fill: rgb(217,239,251); fill-rule: nonzero; opacity: 1;" vector-effect="non-scaling-stroke"  transform=" translate(-3474.68, -3075.63)" d="M 3474.68 3153.77 C 3431.58 3153.77 3396.5299999999997 3118.72 3396.5299999999997 3075.63 C 3396.5299999999997 3032.53 3431.58 2997.48 3474.68 2997.48 C 3517.77 2997.48 3552.8199999999997 3032.53 3552.8199999999997 3075.63 C 3552.8199999999997 3118.7200000000003 3517.7699999999995 3153.77 3474.68 3153.77 z M 3474.68 2975.66 C 3419.56 2975.66 3374.72 3020.5099999999998 3374.72 3075.6299999999997 C 3374.72 3130.74 3419.56 3175.5899999999997 3474.68 3175.5899999999997 C 3529.79 3175.5899999999997 3574.64 3130.74 3574.64 3075.6299999999997 C 3574.64 3020.5099999999998 3529.79 2975.66 3474.68 2975.66" stroke-linecap="round" />
</g>
<g transform="matrix(0.36 0 0 -0.3 1021.3 280.99)"  >
<path style="stroke: none; stroke-width: 1; stroke-dasharray: none; stroke-linecap: butt; stroke-dashoffset: 0; stroke-linejoin: miter; stroke-miterlimit: 4; fill: rgb(95,146,211); fill-rule: nonzero; opacity: 1;" vector-effect="non-scaling-stroke"  transform=" translate(-5495.53, -2326.23)" d="M 5495.54 2375.29 C 5468.48 2375.29 5446.46 2353.2799999999997 5446.46 2326.22 C 5446.46 2299.1699999999996 5468.4800000000005 2277.16 5495.54 2277.16 C 5522.59 2277.16 5544.6 2299.17 5544.6 2326.22 C 5544.6 2353.2799999999997 5522.59 2375.29 5495.54 2375.29 z M 5495.54 2255.34 C 5456.46 2255.34 5424.65 2287.1400000000003 5424.65 2326.2200000000003 C 5424.65 2365.3 5456.46 2397.11 5495.54 2397.11 C 5534.62 2397.11 5566.42 2365.3 5566.42 2326.2200000000003 C 5566.42 2287.1400000000003 5534.62 2255.34 5495.54 2255.34" stroke-linecap="round" />
</g>
<g transform="matrix(0.36 0 0 -0.3 218.46 670.53)"  >
<path style="stroke: none; stroke-width: 1; stroke-dasharray: none; stroke-linecap: butt; stroke-dashoffset: 0; stroke-linejoin: miter; stroke-miterlimit: 4; fill: rgb(95,146,211); fill-rule: nonzero; opacity: 1;" vector-effect="non-scaling-stroke"  transform=" translate(-3196.26, -1047.71)" d="M 3152.47 1062.64 L 3181.33 1003.9300000000001 L 3240.04 1032.78 L 3211.18 1091.49 z M 3171.39 974.7300000000001 L 3123.27 1072.5800000000002 L 3221.12 1120.69 L 3269.24 1022.84 L 3171.39 974.73" stroke-linecap="round" />
</g>
<g transform="matrix(0.36 0 0 -0.3 714.38 208.41)"  >
<path style="stroke: none; stroke-width: 1; stroke-dasharray: none; stroke-linecap: butt; stroke-dashoffset: 0; stroke-linejoin: miter; stroke-miterlimit: 4; fill: rgb(95,146,211); fill-rule: nonzero; opacity: 1;" vector-effect="non-scaling-stroke"  transform=" translate(-4616.52, -2564.46)" d="M 4572.73 2579.39 L 4601.589999999999 2520.67 L 4660.299999999999 2549.53 L 4631.449999999999 2608.25 z M 4591.65 2491.47 L 4543.54 2589.3399999999997 L 4641.39 2637.45 L 4689.5 2539.5899999999997 L 4591.65 2491.47" stroke-linecap="round" />
</g>
<g transform="matrix(0.36 0 0 -0.3 159.62 521.19)"  >
<path style="stroke: none; stroke-width: 1; stroke-dasharray: none; stroke-linecap: butt; stroke-dashoffset: 0; stroke-linejoin: miter; stroke-miterlimit: 4; fill: rgb(95,146,211); fill-rule: nonzero; opacity: 1;" vector-effect="non-scaling-stroke"  transform=" translate(-3028.55, -1537.93)" d="M 3062.1 1526.49 L 3017.11 1504.3700000000001 L 2995 1549.3700000000001 L 3039.98 1571.48 L 3062.1 1526.49" stroke-linecap="round" />
</g>
<g transform="matrix(0.36 0 0 -0.3 730.31 86.37)"  >
<path style="stroke: none; stroke-width: 1; stroke-dasharray: none; stroke-linecap: butt; stroke-dashoffset: 0; stroke-linejoin: miter; stroke-miterlimit: 4; fill: rgb(209,7,141); fill-rule: nonzero; opacity: 1;" vector-effect="non-scaling-stroke"  transform=" translate(-4660.32, -2964.78)" d="M 4803.13 3022.46 L 4535.74 3176.83 C 4530.45 3179.88 4525.66 3180 4521.91 3177.94 L 4521.93 3178.11 L 4496 3163.13 C 4496 3163.13 4507.48 3158.9500000000003 4514.23 3156.46 L 4514.23 2961.75 C 4514.23 2945.91 4523.86 2927.5 4535.74 2920.64 L 4791.3099999999995 2773.0899999999997 L 4791.3099999999995 2750.24 L 4817.509999999999 2765.33 L 4817.369999999999 2765.38 C 4821.799999999999 2768.09 4824.639999999999 2774 4824.639999999999 2782.53 L 4824.639999999999 2981.3500000000004 C 4824.639999999999 2997.2000000000003 4815.009999999999 3015.6000000000004 4803.129999999999 3022.4600000000005" stroke-linecap="round" />
</g>
<g transform="matrix(0.36 0 0 -0.3 724.2 88.94)"  >
<path style="stroke: none; stroke-width: 1; stroke-dasharray: none; stroke-linecap: butt; stroke-dashoffset: 0; stroke-linejoin: miter; stroke-miterlimit: 4; fill: rgb(238,22,150); fill-rule: nonzero; opacity: 1;" vector-effect="non-scaling-stroke"  transform=" translate(-4643.01, -2956.32)" d="M 4776.71 2751.04 L 4509.33 2905.42 C 4497.44 2912.28 4487.8099999999995 2930.6800000000003 4487.8099999999995 2946.52 L 4487.8099999999995 3145.34 C 4487.8099999999995 3161.1800000000003 4497.44 3168.4700000000003 4509.33 3161.61 L 4776.71 3007.23 C 4788.59 3000.37 4798.22 2981.97 4798.22 2966.12 L 4798.22 2767.3 C 4798.22 2751.46 4788.59 2744.1800000000003 4776.71 2751.04" stroke-linecap="round" />
</g>
<g transform="matrix(0.36 0 0 -0.3 701.67 80.5)"  >
<path style="stroke: none; stroke-width: 1; stroke-dasharray: none; stroke-linecap: butt; stroke-dashoffset: 0; stroke-linejoin: miter; stroke-miterlimit: 4; fill: rgb(255,255,255); fill-rule: nonzero; opacity: 1;" vector-effect="non-scaling-stroke"  transform=" translate(-4581.2, -2984.35)" d="M 4599.25 2973.94 C 4599.25 2962.43 4591.17 2957.76 4581.2 2963.52 C 4571.24 2969.27 4563.16 2983.2599999999998 4563.16 2994.77 C 4563.16 3006.27 4571.24 3010.93 4581.2 3005.18 C 4591.17 2999.4199999999996 4599.25 2985.44 4599.25 2973.94" stroke-linecap="round" />
</g>
<g transform="matrix(0.36 0 0 -0.3 720.75 90.11)"  >
<path style="stroke: none; stroke-width: 1; stroke-dasharray: none; stroke-linecap: butt; stroke-dashoffset: 0; stroke-linejoin: miter; stroke-miterlimit: 4; fill: rgb(255,255,255); fill-rule: nonzero; opacity: 1;" vector-effect="non-scaling-stroke"  transform=" translate(-4635.85, -2952.79)" d="M 4653.9 2942.37 C 4653.9 2930.87 4645.82 2926.21 4635.86 2931.96 C 4625.9 2937.71 4617.8099999999995 2951.71 4617.8099999999995 2963.21 C 4617.8099999999995 2974.7200000000003 4625.9 2979.37 4635.86 2973.62 C 4645.82 2967.87 4653.9 2953.89 4653.9 2942.37" stroke-linecap="round" />
</g>
<g transform="matrix(0.36 0 0 -0.3 739.84 99.73)"  >
<path style="stroke: none; stroke-width: 1; stroke-dasharray: none; stroke-linecap: butt; stroke-dashoffset: 0; stroke-linejoin: miter; stroke-miterlimit: 4; fill: rgb(255,255,255); fill-rule: nonzero; opacity: 1;" vector-effect="non-scaling-stroke"  transform=" translate(-4690.51, -2921.24)" d="M 4708.55 2910.82 C 4708.55 2899.32 4700.4800000000005 2894.6600000000003 4690.51 2900.4100000000003 C 4680.55 2906.1600000000003 4672.47 2920.15 4672.47 2931.6600000000003 C 4672.47 2943.1600000000003 4680.55 2947.82 4690.51 2942.07 C 4700.4800000000005 2936.32 4708.55 2922.32 4708.55 2910.82" stroke-linecap="round" />
</g>
<g transform="matrix(0.36 0 0 -0.3 85.81 601.42)"  >
<path style="stroke: none; stroke-width: 1; stroke-dasharray: none; stroke-linecap: butt; stroke-dashoffset: 0; stroke-linejoin: miter; stroke-miterlimit: 4; fill: rgb(95,146,211); fill-rule: nonzero; opacity: 1;" vector-effect="non-scaling-stroke"  transform=" translate(-2814.64, -1274.35)" d="M 2954.73 1330.92 L 2692.42 1482.3600000000001 C 2687.23 1485.3600000000001 2682.53 1485.48 2678.86 1483.46 L 2678.88 1483.6200000000001 L 2653.4300000000003 1468.93 C 2653.4300000000003 1468.93 2664.7000000000003 1464.8100000000002 2671.3100000000004 1462.39 L 2671.3100000000004 1271.3700000000001 C 2671.3100000000004 1255.8200000000002 2680.76 1237.7600000000002 2692.4200000000005 1231.0400000000002 L 2943.1400000000003 1086.2800000000002 L 2943.1400000000003 1063.8700000000001 L 2968.8500000000004 1078.67 L 2968.7100000000005 1078.72 C 2973.0500000000006 1081.3700000000001 2975.8400000000006 1087.19 2975.8400000000006 1095.55 L 2975.8400000000006 1290.6 C 2975.8400000000006 1306.1299999999999 2966.390000000001 1324.1899999999998 2954.7300000000005 1330.9199999999998" stroke-linecap="round" />
</g>
<g transform="matrix(0.36 0 0 -0.3 79.83 603.95)"  >
<path style="stroke: none; stroke-width: 1; stroke-dasharray: none; stroke-linecap: butt; stroke-dashoffset: 0; stroke-linejoin: miter; stroke-miterlimit: 4; fill: rgb(217,239,251); fill-rule: nonzero; opacity: 1;" vector-effect="non-scaling-stroke"  transform=" translate(-2797.66, -1266.04)" d="M 2928.82 1064.66 L 2666.51 1216.1000000000001 C 2654.8500000000004 1222.8300000000002 2645.4 1240.89 2645.4 1256.43 L 2645.4 1451.47 C 2645.4 1467.01 2654.85 1474.16 2666.51 1467.43 L 2928.82 1315.99 C 2940.48 1309.26 2949.9300000000003 1291.2 2949.9300000000003 1275.65 L 2949.9300000000003 1080.6100000000001 C 2949.9300000000003 1065.0700000000002 2940.4800000000005 1057.92 2928.82 1064.66" stroke-linecap="round" />
</g>
<g transform="matrix(0.36 0 0 -0.3 57.71 595.66)"  >
<path style="stroke: none; stroke-width: 1; stroke-dasharray: none; stroke-linecap: butt; stroke-dashoffset: 0; stroke-linejoin: miter; stroke-miterlimit: 4; fill: rgb(255,255,255); fill-rule: nonzero; opacity: 1;" vector-effect="non-scaling-stroke"  transform=" translate(-2737.02, -1293.53)" d="M 2754.72 1283.31 C 2754.72 1272.03 2746.7999999999997 1267.45 2737.02 1273.1 C 2727.25 1278.74 2719.32 1292.4599999999998 2719.32 1303.75 C 2719.32 1315.04 2727.25 1319.61 2737.02 1313.96 C 2746.8 1308.33 2754.72 1294.6000000000001 2754.72 1283.31" stroke-linecap="round" />
</g>
<g transform="matrix(0.36 0 0 -0.3 76.44 605.08)"  >
<path style="stroke: none; stroke-width: 1; stroke-dasharray: none; stroke-linecap: butt; stroke-dashoffset: 0; stroke-linejoin: miter; stroke-miterlimit: 4; fill: rgb(255,255,255); fill-rule: nonzero; opacity: 1;" vector-effect="non-scaling-stroke"  transform=" translate(-2790.64, -1262.58)" d="M 2808.34 1252.36 C 2808.34 1241.07 2800.42 1236.49 2790.6400000000003 1242.1399999999999 C 2780.86 1247.78 2772.9400000000005 1261.5099999999998 2772.9400000000005 1272.79 C 2772.9400000000005 1284.08 2780.8600000000006 1288.6599999999999 2790.6400000000003 1283.02 C 2800.4200000000005 1277.37 2808.34 1263.6399999999999 2808.34 1252.36" stroke-linecap="round" />
</g>
<g transform="matrix(0.36 0 0 -0.3 95.17 614.53)"  >
<path style="stroke: none; stroke-width: 1; stroke-dasharray: none; stroke-linecap: butt; stroke-dashoffset: 0; stroke-linejoin: miter; stroke-miterlimit: 4; fill: rgb(255,255,255); fill-rule: nonzero; opacity: 1;" vector-effect="non-scaling-stroke"  transform=" translate(-2844.26, -1231.62)" d="M 2861.95 1221.41 C 2861.95 1210.1200000000001 2854.0299999999997 1205.5400000000002 2844.2599999999998 1211.18 C 2834.4799999999996 1216.8300000000002 2826.56 1230.5600000000002 2826.56 1241.8400000000001 C 2826.56 1253.1200000000001 2834.48 1257.71 2844.2599999999998 1252.0600000000002 C 2854.0299999999997 1246.42 2861.95 1232.6900000000003 2861.95 1221.41" stroke-linecap="round" />
</g>
</svg>